<svg width="72" height="96" viewBox="0 0 72 96" fill="none" xmlns="http://www.w3.org/2000/svg">
<path d="M68.425 8.925H69.1688C70.401 8.925 71.4 7.92596 71.4 6.69375V2.23125C71.4 0.999042 70.401 0 69.1688 0H2.23125C0.999042 0 0 0.999042 0 2.23125V6.69375C0 7.92596 0.999042 8.925 2.23125 8.925H2.975C2.975 23.9049 8.95996 39.7547 21.0444 47.6C8.90622 55.4802 2.975 71.3814 2.975 86.275H2.23125C0.999042 86.275 0 87.274 0 88.5062V92.9688C0 94.201 0.999042 95.2 2.23125 95.2H69.1688C70.401 95.2 71.4 94.201 71.4 92.9688V88.5062C71.4 87.274 70.401 86.275 69.1688 86.275H68.425C68.425 71.2951 62.44 55.4453 50.3556 47.6C62.494 39.7198 68.425 23.8186 68.425 8.925ZM11.9 8.925H59.5C59.5 27.82 48.8445 43.1375 35.7 43.1375C22.5555 43.1375 11.9 27.8202 11.9 8.925ZM59.5 86.275H11.9C11.9 67.38 22.5557 52.0625 35.7 52.0625C48.8443 52.0625 59.5 67.38 59.5 86.275Z" fill="#FBF5E3"/>
</svg>
