<svg width="42" height="33" viewBox="0 0 42 33" fill="none" xmlns="http://www.w3.org/2000/svg">
<path d="M32.55 14.4375C27.3262 14.4375 23.1 18.5883 23.1 23.7188C23.1 28.8492 27.3262 33 32.55 33C37.7737 33 42 28.8492 42 23.7188C42 18.5883 37.7737 14.4375 32.55 14.4375ZM36.75 24.1248C36.75 24.4664 36.4612 24.75 36.1134 24.75H32.1366C31.7887 24.75 31.5 24.4664 31.5 24.1248V19.1877C31.5 18.8461 31.7887 18.5625 32.1366 18.5625H32.9634C33.3112 18.5625 33.6 18.8461 33.6 19.1877V22.6875H36.1134C36.4612 22.6875 36.75 22.9711 36.75 23.3127V24.1248ZM21 23.7188C21 21.927 21.4397 20.2318 22.1944 18.7236C21.6694 18.627 21.1312 18.5625 20.58 18.5625H19.4841C18.0272 19.2199 16.4062 19.5938 14.7 19.5938C12.9937 19.5938 11.3794 19.2199 9.91594 18.5625H8.82C3.95062 18.5625 0 22.4426 0 27.225V29.9062C0 31.6143 1.41094 33 3.15 33H25.9284C22.9556 30.9439 21 27.5537 21 23.7188ZM14.7 16.5C19.3397 16.5 23.1 12.8068 23.1 8.25C23.1 3.69316 19.3397 0 14.7 0C10.0603 0 6.3 3.69316 6.3 8.25C6.3 12.8068 10.0603 16.5 14.7 16.5Z" fill="#164D4D"/>
</svg>
