<svg width="22" height="22" viewBox="0 0 22 22" fill="none" xmlns="http://www.w3.org/2000/svg">
<path d="M19.2254 0H1.98884C0.890834 0 0 1.0498 0 2.34375V19.5312C0 20.8252 0.890834 21.875 1.98884 21.875H19.2254C20.3235 21.875 21.2143 20.8252 21.2143 19.5312V2.34375C21.2143 1.0498 20.3235 0 19.2254 0ZM15.7616 14.1846C15.9604 14.4189 15.9604 14.7998 15.7616 15.0342L14.0835 17.0117C13.8846 17.2461 13.5614 17.2461 13.3625 17.0117L10.6071 13.7354L7.85177 17.0117C7.65289 17.2461 7.3297 17.2461 7.13082 17.0117L5.45273 15.0342C5.25385 14.7998 5.25385 14.4189 5.45273 14.1846L8.23297 10.9375L5.45273 7.69043C5.25385 7.45605 5.25385 7.0752 5.45273 6.84082L7.13082 4.86328C7.3297 4.62891 7.65289 4.62891 7.85177 4.86328L10.6071 8.13965L13.3625 4.86328C13.5614 4.62891 13.8846 4.62891 14.0835 4.86328L15.7616 6.84082C15.9604 7.0752 15.9604 7.45605 15.7616 7.69043L12.9813 10.9375L15.7616 14.1846Z" fill="#FBF5E3"/>
</svg>
